<mxfile host="Electron" agent="Mozilla/5.0 (X11; Linux x86_64) AppleWebKit/537.36 (KHTML, like Gecko) draw.io/24.7.17 Chrome/128.0.6613.186 Electron/32.2.5 Safari/537.36" version="24.7.17">
  <diagram name="Page-1" id="b5b7bab2-c9e2-2cf4-8b2a-24fd1a2a6d21">
    <mxGraphModel dx="1184" dy="842" grid="1" gridSize="10" guides="1" tooltips="1" connect="1" arrows="1" fold="1" page="1" pageScale="1" pageWidth="827" pageHeight="1169" background="none" math="0" shadow="0">
      <root>
        <mxCell id="0" />
        <mxCell id="1" parent="0" />
        <mxCell id="main-container" value="" style="shape=folder;fontStyle=1;spacingTop=10;tabWidth=320;tabHeight=22;tabPosition=left;html=1;rounded=0;shadow=0;comic=0;labelBackgroundColor=none;strokeWidth=1;fillColor=none;fontFamily=Verdana;fontSize=10;align=center;" vertex="1" parent="1">
          <mxGeometry x="50" y="50" width="900" height="800" as="geometry" />
        </mxCell>
        <mxCell id="main-label" value="github.com/graphql-go/compatibility-standard-definitions" style="text;html=1;align=left;verticalAlign=top;spacingTop=-4;fontSize=14;fontFamily=Verdana;fontStyle=0" vertex="1" parent="1">
          <mxGeometry x="55" y="51.5" width="320" height="20" as="geometry" />
        </mxCell>
        
        <!-- Main Entry Point -->
        <mxCell id="main-go" value="main.go" style="shape=folder;fontStyle=1;spacingTop=10;tabWidth=60;tabHeight=17;tabPosition=left;html=1;rounded=0;shadow=0;comic=0;labelBackgroundColor=none;strokeColor=#000000;strokeWidth=1;fillColor=#ffffff;fontFamily=Helvetica;fontSize=13;fontColor=#000000;align=center;" vertex="1" parent="1">
          <mxGeometry x="400" y="100" width="120" height="60" as="geometry" />
        </mxCell>
        
        <!-- Application Layer -->
        <mxCell id="app-package" value="app" style="shape=folder;fontStyle=1;spacingTop=10;tabWidth=50;tabHeight=17;tabPosition=left;html=1;rounded=0;shadow=0;comic=0;labelBackgroundColor=none;strokeColor=#000000;strokeWidth=1;fillColor=#ffffff;fontFamily=Helvetica;fontSize=13;fontColor=#000000;align=center;" vertex="1" parent="1">
          <mxGeometry x="100" y="200" width="120" height="60" as="geometry" />
        </mxCell>
        
        <!-- Configuration -->
        <mxCell id="config-package" value="config" style="shape=folder;fontStyle=1;spacingTop=10;tabWidth=50;tabHeight=17;tabPosition=left;html=1;rounded=0;shadow=0;comic=0;labelBackgroundColor=none;strokeColor=#000000;strokeWidth=1;fillColor=#ffffff;fontFamily=Helvetica;fontSize=13;fontColor=#000000;align=center;" vertex="1" parent="1">
          <mxGeometry x="250" y="200" width="120" height="60" as="geometry" />
        </mxCell>
        
        <!-- CLI Interface -->
        <mxCell id="cmd-package" value="cmd" style="shape=folder;fontStyle=1;spacingTop=10;tabWidth=50;tabHeight=17;tabPosition=left;html=1;rounded=0;shadow=0;comic=0;labelBackgroundColor=none;strokeColor=#000000;strokeWidth=1;fillColor=#ffffff;fontFamily=Helvetica;fontSize=13;fontColor=#000000;align=center;" vertex="1" parent="1">
          <mxGeometry x="550" y="200" width="120" height="60" as="geometry" />
        </mxCell>
        
        <mxCell id="bubbletea-package" value="bubbletea" style="shape=folder;fontStyle=1;spacingTop=10;tabWidth=70;tabHeight=17;tabPosition=left;html=1;rounded=0;shadow=0;comic=0;labelBackgroundColor=none;strokeColor=#000000;strokeWidth=1;fillColor=#ffffff;fontFamily=Helvetica;fontSize=13;fontColor=#000000;align=center;" vertex="1" parent="1">
          <mxGeometry x="700" y="200" width="120" height="60" as="geometry" />
        </mxCell>
        
        <!-- Core Processing Layer -->
        <mxCell id="core-container" value="" style="shape=folder;fontStyle=1;spacingTop=10;tabWidth=180;tabHeight=24;tabPosition=left;html=1;rounded=0;shadow=0;comic=0;labelBackgroundColor=none;strokeColor=#000000;strokeWidth=1;fillColor=#ffffff;fontFamily=Verdana;fontSize=10;fontColor=#000000;align=center;" vertex="1" parent="1">
          <mxGeometry x="100" y="320" width="720" height="180" as="geometry" />
        </mxCell>
        <mxCell id="core-label" value="Core Processing" style="text;html=1;align=center;verticalAlign=middle;whiteSpace=wrap;rounded=0;fontStyle=1;fontSize=13;fontFamily=Helvetica;" vertex="1" parent="1">
          <mxGeometry x="420" y="290" width="120" height="30" as="geometry" />
        </mxCell>
        
        <mxCell id="puller-package" value="puller" style="shape=folder;fontStyle=1;spacingTop=10;tabWidth=50;tabHeight=17;tabPosition=left;html=1;rounded=0;shadow=0;comic=0;labelBackgroundColor=none;strokeColor=#000000;strokeWidth=1;fillColor=#ffffff;fontFamily=Helvetica;fontSize=12;fontColor=#000000;align=center;" vertex="1" parent="1">
          <mxGeometry x="130" y="360" width="100" height="60" as="geometry" />
        </mxCell>
        
        <mxCell id="executor-package" value="executor" style="shape=folder;fontStyle=1;spacingTop=10;tabWidth=50;tabHeight=17;tabPosition=left;html=1;rounded=0;shadow=0;comic=0;labelBackgroundColor=none;strokeColor=#000000;strokeWidth=1;fillColor=#ffffff;fontFamily=Helvetica;fontSize=12;fontColor=#000000;align=center;" vertex="1" parent="1">
          <mxGeometry x="260" y="360" width="100" height="60" as="geometry" />
        </mxCell>
        
        <mxCell id="extractor-package" value="extractor" style="shape=folder;fontStyle=1;spacingTop=10;tabWidth=60;tabHeight=17;tabPosition=left;html=1;rounded=0;shadow=0;comic=0;labelBackgroundColor=none;strokeColor=#000000;strokeWidth=1;fillColor=#ffffff;fontFamily=Helvetica;fontSize=12;fontColor=#000000;align=center;" vertex="1" parent="1">
          <mxGeometry x="390" y="360" width="100" height="60" as="geometry" />
        </mxCell>
        
        <mxCell id="validator-package" value="validator" style="shape=folder;fontStyle=1;spacingTop=10;tabWidth=60;tabHeight=17;tabPosition=left;html=1;rounded=0;shadow=0;comic=0;labelBackgroundColor=none;strokeColor=#000000;strokeWidth=1;fillColor=#ffffff;fontFamily=Helvetica;fontSize=12;fontColor=#000000;align=center;" vertex="1" parent="1">
          <mxGeometry x="520" y="360" width="100" height="60" as="geometry" />
        </mxCell>
        
        <!-- Data Layer -->
        <mxCell id="data-container" value="" style="shape=folder;fontStyle=1;spacingTop=10;tabWidth=140;tabHeight=24;tabPosition=left;html=1;rounded=0;shadow=0;comic=0;labelBackgroundColor=none;strokeColor=#000000;strokeWidth=1;fillColor=#ffffff;fontFamily=Verdana;fontSize=10;fontColor=#000000;align=center;" vertex="1" parent="1">
          <mxGeometry x="100" y="550" width="720" height="180" as="geometry" />
        </mxCell>
        <mxCell id="data-label" value="Data & Types" style="text;html=1;align=center;verticalAlign=middle;whiteSpace=wrap;rounded=0;fontStyle=1;fontSize=13;fontFamily=Helvetica;" vertex="1" parent="1">
          <mxGeometry x="420" y="520" width="120" height="30" as="geometry" />
        </mxCell>
        
        <mxCell id="types-package" value="types" style="shape=folder;fontStyle=1;spacingTop=10;tabWidth=50;tabHeight=17;tabPosition=left;html=1;rounded=0;shadow=0;comic=0;labelBackgroundColor=none;strokeColor=#000000;strokeWidth=1;fillColor=#ffffff;fontFamily=Helvetica;fontSize=12;fontColor=#000000;align=center;" vertex="1" parent="1">
          <mxGeometry x="200" y="590" width="100" height="60" as="geometry" />
        </mxCell>
        
        <mxCell id="introspection-package" value="introspection" style="shape=folder;fontStyle=1;spacingTop=10;tabWidth=80;tabHeight=17;tabPosition=left;html=1;rounded=0;shadow=0;comic=0;labelBackgroundColor=none;strokeColor=#000000;strokeWidth=1;fillColor=#ffffff;fontFamily=Helvetica;fontSize=12;fontColor=#000000;align=center;" vertex="1" parent="1">
          <mxGeometry x="330" y="590" width="100" height="60" as="geometry" />
        </mxCell>
        
        <mxCell id="implementation-package" value="implementation" style="shape=folder;fontStyle=1;spacingTop=10;tabWidth=90;tabHeight=17;tabPosition=left;html=1;rounded=0;shadow=0;comic=0;labelBackgroundColor=none;strokeColor=#000000;strokeWidth=1;fillColor=#ffffff;fontFamily=Helvetica;fontSize=12;fontColor=#000000;align=center;" vertex="1" parent="1">
          <mxGeometry x="460" y="590" width="100" height="60" as="geometry" />
        </mxCell>
        
        <!-- Dependencies -->
        <mxCell id="main-to-app" style="edgeStyle=none;rounded=0;html=1;dashed=1;labelBackgroundColor=none;startFill=0;endArrow=open;endFill=0;endSize=10;fontFamily=Verdana;fontSize=10;entryX=0.5;entryY=0;entryPerimeter=0;exitX=0;exitY=0.5;exitPerimeter=0;" edge="1" parent="1" source="main-go" target="app-package">
          <mxGeometry relative="1" as="geometry" />
        </mxCell>
        
        <mxCell id="main-to-config" style="edgeStyle=none;rounded=0;html=1;dashed=1;labelBackgroundColor=none;startFill=0;endArrow=open;endFill=0;endSize=10;fontFamily=Verdana;fontSize=10;entryX=0.5;entryY=0;entryPerimeter=0;exitX=0.5;exitY=1;exitPerimeter=0;" edge="1" parent="1" source="main-go" target="config-package">
          <mxGeometry relative="1" as="geometry" />
        </mxCell>
        
        <mxCell id="main-to-cmd" style="edgeStyle=none;rounded=0;html=1;dashed=1;labelBackgroundColor=none;startFill=0;endArrow=open;endFill=0;endSize=10;fontFamily=Verdana;fontSize=10;entryX=0.5;entryY=0;entryPerimeter=0;exitX=1;exitY=0.5;exitPerimeter=0;" edge="1" parent="1" source="main-go" target="cmd-package">
          <mxGeometry relative="1" as="geometry" />
        </mxCell>
        
        <mxCell id="cmd-to-bubbletea" style="edgeStyle=none;rounded=0;html=1;dashed=1;labelBackgroundColor=none;startFill=0;endArrow=open;endFill=0;endSize=10;fontFamily=Verdana;fontSize=10;entryX=0;entryY=0.5;entryPerimeter=0;exitX=1;exitY=0.5;exitPerimeter=0;" edge="1" parent="1" source="cmd-package" target="bubbletea-package">
          <mxGeometry relative="1" as="geometry" />
        </mxCell>
        
        <mxCell id="app-to-core" style="edgeStyle=none;rounded=0;html=1;dashed=1;labelBackgroundColor=none;startFill=0;endArrow=open;endFill=0;endSize=10;fontFamily=Verdana;fontSize=10;entryX=0;entryY=0.25;entryPerimeter=0;exitX=0.5;exitY=1;exitPerimeter=0;" edge="1" parent="1" source="app-package" target="core-container">
          <mxGeometry relative="1" as="geometry" />
        </mxCell>
        
        <mxCell id="core-to-data" style="edgeStyle=none;rounded=0;html=1;dashed=1;labelBackgroundColor=none;startFill=0;endArrow=open;endFill=0;endSize=10;fontFamily=Verdana;fontSize=10;entryX=0.5;entryY=0;entryPerimeter=0;exitX=0.5;exitY=1;exitPerimeter=0;" edge="1" parent="1" source="core-container" target="data-container">
          <mxGeometry relative="1" as="geometry" />
        </mxCell>
        
      </root>
    </mxGraphModel>
  </diagram>
</mxfile>
